# xmcd
#
# Track frame offsets: 
#        150
#        12917
#        22088
#        39366
#        55217
#        67019
#        78480
#        113293
#        138451
#        151600
#        178390
#        191977
#        204895
#        219789
#        254054
#        285551
#        305596
#        318512
#
# Disc length: 4424 seconds
#
# Revision: 1
# Processed by: cddbd v1.5.2PL0 Copyright (c) Steve Scherf et al.
# Submitted via: ExactAudioCopy v1.2
#
DISCID=fe114612
DTITLE=Oscar Peterson I - Connoisseur Jazz Cuts - CD 3 of 20
DYEAR=2012
DGENRE=Jazz
TTITLE0=It Ain't Neccessarily so
TTITLE1=Ac-Cent-Tchu-Ate the Positive
TTITLE2=Woody 'n You
TTITLE3=Love for Sale
TTITLE4=The Surrey with the Fringe on Top
TTITLE5=Get Happy
TTITLE6=Maidens of Cadiz
TTITLE7=Joy Spring
TTITLE8=O.P.
TTITLE9=A Gal in Calico
TTITLE10=That Old Black Magic
TTITLE11=Too Marvelous for Words
TTITLE12=Easter Parade
TTITLE13=Big Fat Mama
TTITLE14=Con Alma
TTITLE15=Evrev
TTITLE16=Lover, Come back to Me
TTITLE17=Summertime
EXTD=YEAR: 2012
EXTT0=
EXTT1=
EXTT2=
EXTT3=
EXTT4=
EXTT5=
EXTT6=
EXTT7=
EXTT8=
EXTT9=
EXTT10=
EXTT11=
EXTT12=
EXTT13=
EXTT14=
EXTT15=
EXTT16=
EXTT17=
PLAYORDER=
